<svg width="32" height="32" viewBox="0 0 32 32" fill="none" xmlns="http://www.w3.org/2000/svg">
<path d="M27.9384 9.79097C29.3994 12.8831 29.6367 16.4107 28.6028 19.6696C27.569 22.9284 25.3401 25.6786 22.3613 27.3709C19.3825 29.0632 15.8729 29.5732 12.5335 28.7989C9.19399 28.0247 6.27036 26.0232 4.34637 23.1942C2.42238 20.3651 1.63963 16.9167 2.15442 13.5375C2.66922 10.1584 4.44366 7.09712 7.12344 4.96507C9.80322 2.83302 13.1911 1.78708 16.6106 2.0361C20.0301 2.28513 23.2295 3.8108 25.57 6.30846" stroke="var(--color-icon, #000)" stroke-width="0.636365" stroke-miterlimit="10"/>
<path d="M14.853 23.0234L7.17188 15.3661L9.92784 12.6187L14.853 17.5286L27.2387 5.17078L30.0001 7.92352L14.853 23.0234Z" stroke="var(--color-icon-accent, #B3976B)" stroke-width="0.636365" stroke-miterlimit="10"/>
</svg>
