<svg xmlns="http://www.w3.org/2000/svg" width="32" height="32" viewBox="0 0 32 32" fill="none">
  <g stroke="var(--color-icon, #000)" stroke-miterlimit="10" stroke-linecap="round">
    <path d="M30.62 6.5H26.5" />
    <path d="M20.5 6.5H1.5" />
    <path d="M31.1005 16H18.9805" />
    <path d="M13 16H1.5" />
    <path d="M30.62 25.5H12" />
    <path d="M6 25.5H1.5" />
  </g>
  <g stroke="var(--color-icon-acent, #B3976B)" stroke-miterlimit="10">
    <path d="M16 18.5C17.3807 18.5 18.5 17.3807 18.5 16C18.5 14.6193 17.3807 13.5 16 13.5C14.6193 13.5 13.5 14.6193 13.5 16C13.5 17.3807 14.6193 18.5 16 18.5Z" />
    <path d="M23.5 9C24.8807 9 26 7.88071 26 6.5C26 5.11929 24.8807 4 23.5 4C22.1193 4 21 5.11929 21 6.5C21 7.88071 22.1193 9 23.5 9Z" />
    <path d="M9 28C10.3807 28 11.5 26.8807 11.5 25.5C11.5 24.1193 10.3807 23 9 23C7.61929 23 6.5 24.1193 6.5 25.5C6.5 26.8807 7.61929 28 9 28Z" />
  </g>
</svg>
