<svg xmlns="http://www.w3.org/2000/svg" width="32" height="32" viewBox="0 0 32 32" fill="none">
  <path d="M13.98 5.5H4.5V28.5H10.24H10.97H27.5V5.5H22.87" stroke="var(--color-icon, #000)" stroke-miterlimit="10"/>
  <path d="M27.5 30C28.33 30 29 29.33 29 28.5C29 27.67 28.33 27 27.5 27C26.67 27 26 27.67 26 28.5C26 29.33 26.67 30 27.5 30Z" fill="var(--color-icon-accent, #B3976B)"/>
  <path d="M4.5 30C5.33 30 6 29.33 6 28.5C6 27.67 5.33 27 4.5 27C3.67 27 3 27.67 3 28.5C3 29.33 3.67 30 4.5 30Z" fill="var(--color-icon-accent, #B3976B)"/>
  <path d="M27.5 7C28.33 7 29 6.33 29 5.5C29 4.67 28.33 4 27.5 4C26.67 4 26 4.67 26 5.5C26 6.33 26.67 7 27.5 7Z" fill="var(--color-icon-accent, #B3976B)"/>
  <path d="M4.5 7C5.33 7 6 6.33 6 5.5C6 4.67 5.33 4 4.5 4C3.67 4 3 4.67 3 5.5C3 6.33 3.67 7 4.5 7Z" fill="var(--color-icon-accent, #B3976B)"/>
  <path d="M22.8705 5.5L25.0005 2H15.5005L13.9805 5.5" stroke="var(--color-icon-accent, #B3976B)"/>
  <path d="M13.98 5.5L9 17H14.5L10.24 28.5L9 31.5L10.97 28.5L22 13.5H18L22.87 5.5" stroke="var(--color-icon-accent, #B3976B)"/>
</svg>